<?xml version="1.0" standalone="no"?>
<!DOCTYPE svg PUBLIC "-//W3C//DTD SVG 20010904//EN"
 "http://www.w3.org/TR/2001/REC-SVG-20010904/DTD/svg10.dtd">
<svg version="1.0" xmlns="http://www.w3.org/2000/svg"
 width="1084.000000pt" height="1084.000000pt" viewBox="0 0 1084.000000 1084.000000"
 preserveAspectRatio="xMidYMid meet">
<metadata>
Created by potrace 1.11, written by Peter Selinger 2001-2013
</metadata>
<g transform="translate(0.000000,1084.000000) scale(0.100000,-0.100000)"
fill="#000000" stroke="none">
<path d="M5308 10595 c-2 -2 -50 -5 -108 -8 -58 -3 -114 -8 -125 -10 -11 -3
-47 -8 -80 -12 -437 -52 -972 -284 -1425 -620 -52 -38 -97 -72 -100 -75 -3 -3
-32 -27 -65 -54 -185 -153 -421 -389 -611 -612 -115 -134 -130 -153 -265 -326
l-131 -168 -51 -1 c-29 0 -116 0 -194 0 l-143 0 0 -32 c-1 -55 -1 -350 -1
-389 1 -33 4 -37 31 -40 l29 -3 -74 -115 c-80 -123 -90 -139 -154 -243 -45
-74 -52 -85 -151 -262 -268 -479 -520 -1089 -679 -1645 -36 -128 -83 -312 -97
-380 -3 -14 -11 -53 -19 -88 -8 -34 -17 -74 -20 -90 -4 -27 -20 -105 -30 -152
-19 -92 -26 -130 -30 -165 -3 -22 -7 -49 -9 -61 -2 -12 -7 -45 -11 -74 -4 -29
-8 -61 -10 -70 -2 -9 -6 -53 -10 -96 -4 -43 -9 -88 -11 -99 -24 -122 -23 -913
1 -1115 2 -19 7 -57 10 -85 5 -44 12 -92 32 -210 24 -145 94 -388 160 -555
189 -478 540 -966 928 -1290 50 -41 92 -77 95 -80 11 -12 189 -138 255 -181
394 -257 1040 -511 1515 -595 14 -2 36 -7 50 -11 34 -9 43 -10 87 -16 47 -7
229 -36 263 -42 14 -3 45 -7 70 -10 25 -3 56 -8 70 -10 73 -14 96 -16 230 -30
36 -3 75 -8 88 -10 13 -2 65 -7 115 -10 51 -4 108 -9 127 -11 94 -9 351 -16
580 -16 222 0 308 2 530 17 73 4 203 16 230 20 14 2 56 6 93 10 37 3 76 8 85
10 9 1 46 6 82 10 36 4 72 8 80 10 17 3 90 14 135 21 17 2 41 6 55 9 14 2 43
7 65 10 23 3 52 7 65 10 14 3 77 14 140 25 172 31 509 116 595 150 11 4 67 25
125 46 295 105 632 266 852 408 631 404 1121 1033 1352 1732 14 44 28 89 31
100 2 10 15 62 29 114 34 137 64 321 81 501 23 247 23 821 0 1059 -7 73 -25
228 -31 261 -2 15 -6 47 -9 70 -3 24 -10 67 -15 94 -5 28 -12 64 -15 80 -19
112 -62 323 -92 445 -13 58 -26 115 -29 126 -10 50 -107 380 -149 509 -230
694 -517 1284 -941 1930 l-59 90 0 207 0 207 -148 -1 c-81 0 -149 1 -151 3
-23 32 -203 267 -211 275 -5 6 -23 28 -40 49 -16 21 -35 43 -40 49 -6 6 -21
25 -34 41 -104 135 -443 488 -596 621 -103 89 -249 203 -340 266 -193 132
-476 290 -640 358 -44 18 -94 39 -112 46 -17 8 -36 14 -42 14 -6 0 -19 4 -29
9 -37 21 -310 96 -387 107 -16 2 -37 6 -45 7 -16 4 -94 16 -145 22 -98 13
-448 28 -457 20z m-931 -1191 c70 -24 122 -66 189 -151 130 -168 192 -220 355
-296 238 -111 476 -138 737 -82 56 12 68 15 121 31 190 55 347 163 465 319
144 192 244 226 466 159 30 -10 59 -21 64 -26 6 -4 16 -8 24 -8 25 0 295 -136
408 -205 95 -58 269 -178 284 -195 3 -3 19 -16 35 -29 61 -46 244 -205 240
-209 -5 -6 -4695 -8 -4695 -2 0 6 38 46 67 70 9 8 51 44 93 79 290 248 686
473 950 540 93 23 139 24 197 5z m-1796 -1166 c1 -22 8 -60 39 -198 16 -74 32
-146 34 -160 7 -37 36 -174 116 -540 11 -52 22 -104 24 -115 3 -11 16 -76 31
-145 15 -69 29 -136 32 -150 2 -14 9 -45 14 -70 13 -54 18 -78 23 -108 12 -59
7 -57 133 -58 139 -2 640 -13 868 -19 239 -6 772 -17 924 -19 l135 -1 12 68
c7 37 16 84 19 104 3 20 7 45 10 57 7 29 13 68 26 154 6 39 14 72 18 72 5 0
144 -151 316 -344 26 -30 60 -47 78 -40 8 3 64 60 123 127 60 67 116 129 124
137 8 9 37 41 65 70 l50 54 12 -55 c7 -30 15 -74 18 -99 3 -25 11 -65 16 -89
5 -24 11 -56 13 -70 4 -29 15 -94 21 -127 4 -20 10 -20 137 -18 198 3 751 15
928 19 85 2 292 7 460 10 293 7 477 11 511 14 15 1 33 66 64 229 2 13 6 31 9
40 3 9 8 33 11 52 3 19 12 60 20 90 8 30 17 75 20 100 4 24 9 48 11 52 3 4 7
18 9 30 3 13 12 57 20 98 8 41 17 85 20 98 2 13 6 31 9 40 3 9 7 28 10 42 2
14 25 122 51 240 26 118 48 222 50 230 2 8 10 51 19 95 27 129 27 129 62 96
178 -170 431 -554 543 -822 216 -521 153 -997 -199 -1489 -81 -113 -84 -116
-229 -289 -265 -315 -592 -604 -931 -823 -107 -69 -192 -121 -220 -135 -69
-34 -314 -191 -394 -251 -156 -120 -362 -333 -462 -477 -126 -183 -116 -344
31 -490 90 -90 118 -109 260 -180 182 -90 412 -166 610 -200 17 -3 37 -8 45
-10 91 -25 497 -26 645 -2 133 22 147 25 237 48 93 23 329 104 380 130 26 14
37 15 41 6 11 -29 -2 -305 -18 -387 -3 -13 -7 -42 -11 -65 -16 -109 -80 -299
-148 -442 -76 -158 -210 -355 -342 -503 -319 -360 -580 -561 -1004 -774 -216
-109 -457 -207 -650 -265 -137 -41 -314 -85 -384 -95 -21 -4 -41 -8 -45 -10
-3 -2 -31 -7 -61 -11 -30 -4 -57 -8 -60 -10 -3 -1 -36 -6 -75 -10 -38 -4 -72
-8 -75 -10 -13 -8 -227 -19 -365 -19 -132 -1 -285 7 -356 19 -13 2 -51 7 -84
11 -33 4 -62 8 -65 9 -3 0 -26 4 -51 8 -287 46 -521 112 -822 229 -155 60
-445 203 -586 288 -433 262 -843 675 -1056 1065 -78 143 -162 365 -180 480 -3
16 -10 53 -15 80 -19 102 -33 361 -22 406 3 14 15 12 82 -17 74 -31 307 -109
354 -118 12 -3 53 -11 92 -20 38 -8 92 -18 120 -21 27 -4 76 -10 109 -15 62
-9 421 -6 465 3 14 3 43 8 65 12 82 11 113 18 220 46 270 69 553 193 652 286
7 6 23 20 36 30 85 67 149 204 141 298 -11 123 -64 213 -234 400 -87 95 -209
213 -280 270 -95 75 -168 123 -414 270 -532 318 -852 587 -1208 1016 -271 328
-395 540 -463 794 -35 133 -37 146 -41 325 -3 149 5 241 29 335 57 226 133
396 285 641 127 204 187 284 306 411 57 61 85 77 87 51z m2869 -135 c133 -10
164 -13 171 -20 4 -4 10 -24 13 -43 2 -19 12 -75 21 -125 9 -49 18 -99 20
-110 3 -22 32 -187 39 -221 2 -12 7 -37 10 -55 3 -19 8 -45 11 -59 3 -14 7
-41 10 -60 2 -19 9 -60 15 -90 6 -30 13 -71 16 -90 3 -19 8 -38 11 -42 2 -5 0
-8 -6 -8 -5 0 -11 4 -13 9 -1 5 -73 82 -158 171 -85 89 -156 166 -158 171 -2
5 -16 9 -31 9 -27 0 -41 -13 -329 -319 l-44 -46 6 40 c6 42 11 69 26 150 5 28
11 61 14 75 2 14 11 63 20 110 8 47 18 102 22 124 3 21 7 48 10 60 15 80 46
253 50 284 7 62 13 72 42 73 15 0 36 2 47 4 11 2 44 5 73 6 39 2 52 6 53 18 0
14 1 14 7 1 4 -8 18 -16 32 -17z"/>
<path d="M1267 1409 c-67 -10 -129 -43 -223 -115 -264 -204 -425 -491 -428
-759 -1 -78 3 -98 25 -146 37 -79 90 -133 165 -170 60 -30 71 -32 176 -32 234
-2 416 43 625 153 174 92 275 175 344 281 31 50 34 59 34 134 0 75 -3 86 -46
175 -55 114 -117 198 -225 305 -137 137 -294 198 -447 174z"/>
<path d="M9418 1404 c-133 -25 -242 -98 -374 -249 -67 -76 -117 -152 -154
-230 -82 -176 -58 -279 96 -424 115 -107 386 -249 524 -275 14 -2 45 -9 70
-14 110 -25 288 -35 365 -21 141 26 251 143 273 289 14 94 -20 258 -79 388
-70 153 -184 292 -339 416 -147 118 -238 147 -382 120z"/>
</g>
</svg>
